{
	"asset":{
		"generator":"Khronos glTF Blender I/O v4.1.62",
		"version":"2.0"
	},
	"scene":0,
	"scenes":[
		{
			"name":"Scene",
			"nodes":[
				0
			]
		}
	],
	"nodes":[
		{
			"mesh":0,
			"name":"door",
			"scale":[
				3.1702206134796143,
				3.1702206134796143,
				1
			],
			"translation":[
				0,
				0.71537846326828,
				0
			]
		}
	],
	"materials":[
		{
			"doubleSided":true,
			"name":"BrownDark",
			"pbrMetallicRoughness":{
				"baseColorFactor":[
					0.32694560289382935,
					0.10152623057365417,
					0.05927089974284172,
					1
				],
				"metallicFactor":0,
				"roughnessFactor":0.4000000059604645
			}
		},
		{
			"doubleSided":true,
			"name":"Metal",
			"pbrMetallicRoughness":{
				"baseColorFactor":[
					0.40126433968544006,
					0.47849249839782715,
					0.5173344612121582,
					1
				],
				"metallicFactor":0.20000000298023224,
				"roughnessFactor":0.30000001192092896
			}
		}
	],
	"meshes":[
		{
			"name":"Cube.4453",
			"primitives":[
				{
					"attributes":{
						"POSITION":0,
						"NORMAL":1,
						"TEXCOORD_0":2
					},
					"indices":3,
					"material":0
				},
				{
					"attributes":{
						"POSITION":4,
						"NORMAL":5,
						"TEXCOORD_0":6
					},
					"indices":7,
					"material":1
				}
			]
		}
	],
	"accessors":[
		{
			"bufferView":0,
			"componentType":5126,
			"count":214,
			"max":[
				2,
				2.2929422855377197,
				0.10000001639127731
			],
			"min":[
				0,
				0.0979980081319809,
				-0.10000001639127731
			],
			"type":"VEC3"
		},
		{
			"bufferView":1,
			"componentType":5126,
			"count":214,
			"type":"VEC3"
		},
		{
			"bufferView":2,
			"componentType":5126,
			"count":214,
			"type":"VEC2"
		},
		{
			"bufferView":3,
			"componentType":5123,
			"count":372,
			"type":"SCALAR"
		},
		{
			"bufferView":4,
			"componentType":5126,
			"count":426,
			"max":[
				2,
				1.141598105430603,
				0.23691295087337494
			],
			"min":[
				0,
				-0.2070576399564743,
				-0.23691369593143463
			],
			"type":"VEC3"
		},
		{
			"bufferView":5,
			"componentType":5126,
			"count":426,
			"type":"VEC3"
		},
		{
			"bufferView":6,
			"componentType":5126,
			"count":426,
			"type":"VEC2"
		},
		{
			"bufferView":7,
			"componentType":5123,
			"count":1008,
			"type":"SCALAR"
		}
	],
	"bufferViews":[
		{
			"buffer":0,
			"byteLength":2568,
			"byteOffset":0,
			"target":34962
		},
		{
			"buffer":0,
			"byteLength":2568,
			"byteOffset":2568,
			"target":34962
		},
		{
			"buffer":0,
			"byteLength":1712,
			"byteOffset":5136,
			"target":34962
		},
		{
			"buffer":0,
			"byteLength":744,
			"byteOffset":6848,
			"target":34963
		},
		{
			"buffer":0,
			"byteLength":5112,
			"byteOffset":7592,
			"target":34962
		},
		{
			"buffer":0,
			"byteLength":5112,
			"byteOffset":12704,
			"target":34962
		},
		{
			"buffer":0,
			"byteLength":3408,
			"byteOffset":17816,
			"target":34962
		},
		{
			"buffer":0,
			"byteLength":2016,
			"byteOffset":21224,
			"target":34963
		}
	],
	"buffers":[
		{
			"byteLength":23240,
			"uri":"door.bin"
		}
	]
}
