{
	"asset":{
		"generator":"Khronos glTF Blender I/O v4.1.62",
		"version":"2.0"
	},
	"scene":0,
	"scenes":[
		{
			"name":"Scene",
			"nodes":[
				0
			]
		}
	],
	"nodes":[
		{
			"mesh":0,
			"name":"tileBrickA_large",
			"translation":[
				0,
				-1.0320947170257568,
				0
			]
		}
	],
	"materials":[
		{
			"name":"StoneDark",
			"pbrMetallicRoughness":{
				"baseColorFactor":[
					0.10092172026634216,
					0.11823292821645737,
					0.12790560722351074,
					1
				],
				"metallicFactor":0,
				"roughnessFactor":0.5
			}
		},
		{
			"name":"Stone",
			"pbrMetallicRoughness":{
				"baseColorFactor":[
					0.1923278123140335,
					0.22819341719150543,
					0.24619518220424652,
					1
				],
				"metallicFactor":0,
				"roughnessFactor":0.5
			}
		}
	],
	"meshes":[
		{
			"name":"Cube.4518",
			"primitives":[
				{
					"attributes":{
						"POSITION":0,
						"NORMAL":1,
						"TEXCOORD_0":2
					},
					"indices":3,
					"material":0
				},
				{
					"attributes":{
						"POSITION":4,
						"NORMAL":5,
						"TEXCOORD_0":6
					},
					"indices":7,
					"material":1
				}
			]
		}
	],
	"accessors":[
		{
			"bufferView":0,
			"componentType":5126,
			"count":412358,
			"max":[
				57.474998474121094,
				1.059999942779541,
				3.0250000953674316
			],
			"min":[
				-3.0250000953674316,
				0.24374999105930328,
				-57.474998474121094
			],
			"type":"VEC3"
		},
		{
			"bufferView":1,
			"componentType":5126,
			"count":412358,
			"type":"VEC3"
		},
		{
			"bufferView":2,
			"componentType":5126,
			"count":412358,
			"type":"VEC2"
		},
		{
			"bufferView":3,
			"componentType":5125,
			"count":1377600,
			"type":"SCALAR"
		},
		{
			"bufferView":4,
			"componentType":5126,
			"count":16082,
			"max":[
				57.44999694824219,
				1,
				3.000000238418579
			],
			"min":[
				-3.000000238418579,
				0,
				-57.44999694824219
			],
			"type":"VEC3"
		},
		{
			"bufferView":5,
			"componentType":5126,
			"count":16082,
			"type":"VEC3"
		},
		{
			"bufferView":6,
			"componentType":5126,
			"count":16082,
			"type":"VEC2"
		},
		{
			"bufferView":7,
			"componentType":5123,
			"count":56400,
			"type":"SCALAR"
		}
	],
	"bufferViews":[
		{
			"buffer":0,
			"byteLength":4948296,
			"byteOffset":0,
			"target":34962
		},
		{
			"buffer":0,
			"byteLength":4948296,
			"byteOffset":4948296,
			"target":34962
		},
		{
			"buffer":0,
			"byteLength":3298864,
			"byteOffset":9896592,
			"target":34962
		},
		{
			"buffer":0,
			"byteLength":5510400,
			"byteOffset":13195456,
			"target":34963
		},
		{
			"buffer":0,
			"byteLength":192984,
			"byteOffset":18705856,
			"target":34962
		},
		{
			"buffer":0,
			"byteLength":192984,
			"byteOffset":18898840,
			"target":34962
		},
		{
			"buffer":0,
			"byteLength":128656,
			"byteOffset":19091824,
			"target":34962
		},
		{
			"buffer":0,
			"byteLength":112800,
			"byteOffset":19220480,
			"target":34963
		}
	],
	"buffers":[
		{
			"byteLength":19333280,
			"uri":"floor.bin"
		}
	]
}
