{
	"asset":{
		"generator":"Khronos glTF Blender I/O v4.1.62",
		"version":"2.0"
	},
	"scene":0,
	"scenes":[
		{
			"name":"Scene",
			"nodes":[
				25,
				26
			]
		}
	],
	"nodes":[
		{
			"name":"Toes.Right",
			"rotation":[
				-0.07715432345867157,
				-0.0006693393806926906,
				-0.0006021198933012784,
				0.9970187544822693
			],
			"scale":[
				1.0000001192092896,
				1.0000001192092896,
				1
			],
			"translation":[
				2.6222551241517067e-08,
				0.2908816337585449,
				6.7870132625103e-08
			]
		},
		{
			"children":[
				0
			],
			"name":"Foot.Right",
			"rotation":[
				-0.46814101934432983,
				0.5827373266220093,
				0.44866493344306946,
				0.48985815048217773
			],
			"scale":[
				0.9999999403953552,
				1,
				0.9999998807907104
			],
			"translation":[
				-1.862645149230957e-09,
				0.9930036067962646,
				1.993030309677124e-07
			]
		},
		{
			"children":[
				1
			],
			"name":"Shin.Right",
			"rotation":[
				-0.04650826007127762,
				0.7804384827613831,
				-0.03185846656560898,
				0.622685968875885
			],
			"scale":[
				1.0000001192092896,
				1.0000001192092896,
				1.0000001192092896
			],
			"translation":[
				-1.1920928955078125e-07,
				0.8242397904396057,
				6.705522537231445e-08
			]
		},
		{
			"children":[
				2
			],
			"name":"Thigh.Right",
			"rotation":[
				-0.05168377608060837,
				0.986186146736145,
				0.0042575388215482235,
				0.1573135256767273
			],
			"scale":[
				0.9999999403953552,
				0.9999997019767761,
				1.0000001192092896
			],
			"translation":[
				-0.19862337410449982,
				0.47492775321006775,
				-0.023611990734934807
			]
		},
		{
			"name":"Toes.Left",
			"rotation":[
				-0.07715432345867157,
				0.0006693393806926906,
				0.0006021197768859565,
				0.9970187544822693
			],
			"scale":[
				1.0000001192092896,
				1.0000001192092896,
				1
			],
			"translation":[
				6.26023393124342e-08,
				0.2908816337585449,
				7.066410034894943e-08
			]
		},
		{
			"children":[
				4
			],
			"name":"Foot.Left",
			"rotation":[
				-0.46814101934432983,
				-0.5827373266220093,
				-0.44866499304771423,
				0.48985815048217773
			],
			"scale":[
				0.9999999403953552,
				1.0000001192092896,
				0.9999999403953552
			],
			"translation":[
				8.381903171539307e-09,
				0.9930035471916199,
				-9.778887033462524e-08
			]
		},
		{
			"children":[
				5
			],
			"name":"Shin.Left",
			"rotation":[
				-0.04650826007127762,
				-0.7804384827613831,
				0.031858474016189575,
				0.622685968875885
			],
			"scale":[
				1.0000001192092896,
				1.000000238418579,
				1.000000238418579
			],
			"translation":[
				9.033828973770142e-08,
				0.8242399096488953,
				2.60770320892334e-08
			]
		},
		{
			"children":[
				6
			],
			"name":"Thigh.Left",
			"rotation":[
				-0.05168377608060837,
				-0.986186146736145,
				-0.004257539287209511,
				0.1573135256767273
			],
			"scale":[
				0.9999999403953552,
				0.9999997019767761,
				1
			],
			"translation":[
				0.19862328469753265,
				0.47492775321006775,
				-0.023611990734934807
			]
		},
		{
			"children":[
				3,
				7
			],
			"name":"Hip",
			"rotation":[
				0.022068539634346962,
				3.840868417782787e-18,
				-3.886561179988502e-16,
				0.9997565150260925
			],
			"scale":[
				1,
				0.9999999403953552,
				0.9999999403953552
			],
			"translation":[
				3.5590531410889525e-08,
				0.6148684620857239,
				7.692591452723718e-09
			]
		},
		{
			"name":"Fingers2.Right",
			"rotation":[
				0.006838434841483831,
				-0.00688954908400774,
				-7.943670789245516e-05,
				0.9999529123306274
			],
			"translation":[
				3.060777089558542e-07,
				0.09951077401638031,
				1.30385160446167e-08
			]
		},
		{
			"children":[
				9
			],
			"name":"Fingers1.Right",
			"rotation":[
				-0.03563374653458595,
				0.03577509522438049,
				0.01856561005115509,
				0.9985517859458923
			],
			"scale":[
				1.0000001192092896,
				1.000000238418579,
				1.0000001192092896
			],
			"translation":[
				-1.6577541828155518e-07,
				0.22458380460739136,
				5.960464477539063e-08
			]
		},
		{
			"name":"Thumb2.Right",
			"rotation":[
				-0.00794892106205225,
				-0.2477874904870987,
				-0.008872969076037407,
				0.9687411785125732
			],
			"scale":[
				1,
				0.9999998807907104,
				1
			],
			"translation":[
				-2.1379673853516579e-07,
				0.11572876572608948,
				-1.8998980522155762e-07
			]
		},
		{
			"children":[
				11
			],
			"name":"Thumb1.Right",
			"rotation":[
				0.5913148522377014,
				0.03854813054203987,
				-0.02805858850479126,
				0.805030107498169
			],
			"scale":[
				1.0000001192092896,
				1,
				1
			],
			"translation":[
				-0.012082487344741821,
				0.09197209030389786,
				0.08457157760858536
			]
		},
		{
			"children":[
				10,
				12
			],
			"name":"Hand.Right",
			"rotation":[
				0.01000890415161848,
				-0.0086943618953228,
				0.012654281221330166,
				0.9998320937156677
			],
			"scale":[
				0.9999998807907104,
				0.9999999403953552,
				0.9999998807907104
			],
			"translation":[
				1.4621764421463013e-07,
				0.4956217408180237,
				-1.4901161193847656e-08
			]
		},
		{
			"children":[
				13
			],
			"name":"Forearm.Right",
			"rotation":[
				0.06476438790559769,
				-0.06235480308532715,
				-0.027203993871808052,
				0.995578944683075
			],
			"scale":[
				1,
				0.9999998211860657,
				1
			],
			"translation":[
				1.4994293451309204e-07,
				0.5988051891326904,
				0
			]
		},
		{
			"children":[
				14
			],
			"name":"Upperarm.Right",
			"rotation":[
				0.7101361751556396,
				-0.7031559348106384,
				-0.01856301538646221,
				0.03055831417441368
			],
			"scale":[
				1,
				1,
				1.0000001192092896
			],
			"translation":[
				-0.3450362980365753,
				0.061295900493860245,
				0.03844702988862991
			]
		},
		{
			"name":"Head",
			"rotation":[
				-0.9973084330558777,
				-9.392064903579467e-09,
				1.277499706020535e-07,
				0.0733206495642662
			],
			"scale":[
				1,
				0.9999999403953552,
				0.9999999403953552
			],
			"translation":[
				3.9615695612837953e-08,
				-0.11121371388435364,
				-0.05171103775501251
			]
		},
		{
			"name":"Fingers2.Left",
			"rotation":[
				0.006838435772806406,
				0.006889530457556248,
				7.933786400826648e-05,
				0.9999529123306274
			],
			"scale":[
				0.9999999403953552,
				1,
				1
			],
			"translation":[
				-3.203786036465317e-08,
				0.09951044619083405,
				-2.7939677238464355e-09
			]
		},
		{
			"children":[
				17
			],
			"name":"Fingers1.Left",
			"rotation":[
				-0.03563375025987625,
				-0.03577511012554169,
				-0.01856556348502636,
				0.9985517859458923
			],
			"scale":[
				1.0000001192092896,
				1.0000001192092896,
				1.0000001192092896
			],
			"translation":[
				2.2910535335540771e-07,
				0.2245839238166809,
				-1.1175870895385742e-08
			]
		},
		{
			"name":"Thumb2.Left",
			"rotation":[
				-0.007948002777993679,
				0.24778780341148376,
				0.008873077109456062,
				0.9687411189079285
			],
			"scale":[
				1,
				0.9999999403953552,
				0.9999998807907104
			],
			"translation":[
				2.5244662538170815e-07,
				0.11572861671447754,
				9.592622518539429e-08
			]
		},
		{
			"children":[
				19
			],
			"name":"Thumb1.Left",
			"rotation":[
				0.5913148522377014,
				-0.038548100739717484,
				0.02805859036743641,
				0.8050301671028137
			],
			"scale":[
				1,
				0.9999999403953552,
				1
			],
			"translation":[
				0.012082567438483238,
				0.09197218716144562,
				0.0845714583992958
			]
		},
		{
			"children":[
				18,
				20
			],
			"name":"Hand.Left",
			"rotation":[
				0.01000890787690878,
				0.008694363757967949,
				-0.012654345482587814,
				0.9998320937156677
			],
			"scale":[
				0.9999998807907104,
				1,
				0.9999999403953552
			],
			"translation":[
				-2.0209699869155884e-07,
				0.4956216812133789,
				-1.1175870895385742e-08
			]
		},
		{
			"children":[
				21
			],
			"name":"Forearm.Left",
			"rotation":[
				0.06476438045501709,
				0.06235480681061745,
				0.027203990146517754,
				0.995578944683075
			],
			"scale":[
				1,
				1,
				1.0000001192092896
			],
			"translation":[
				2.130400389432907e-07,
				0.5988051295280457,
				8.847564458847046e-09
			]
		},
		{
			"children":[
				22
			],
			"name":"Upperarm.Left",
			"rotation":[
				0.7101361751556396,
				0.7031559348106384,
				0.01856301538646221,
				0.03055831976234913
			],
			"scale":[
				1,
				1,
				1.0000001192092896
			],
			"translation":[
				0.3450362980365753,
				0.061295900493860245,
				0.03844702988862991
			]
		},
		{
			"children":[
				8,
				15,
				16,
				23
			],
			"name":"Back",
			"rotation":[
				0.688199520111084,
				-3.0799925462876404e-23,
				6.12097136146769e-16,
				0.7255215048789978
			],
			"translation":[
				2.5793230662429778e-08,
				-0.1497805118560791,
				0.19420765340328217
			]
		},
		{
			"children":[
				24
			],
			"name":"MaleArm",
			"rotation":[
				0.7071068286895752,
				0,
				0,
				0.7071068286895752
			],
			"scale":[
				0.5,
				0.5,
				0.5
			],
			"translation":[
				-0.4998931884765625,
				1.6149646043777466,
				0.018909532576799393
			]
		},
		{
			"mesh":0,
			"name":"HumanMale",
			"skin":0
		}
	],
	"materials":[
		{
			"doubleSided":true,
			"name":"Material.001",
			"pbrMetallicRoughness":{
				"baseColorFactor":[
					0.800000011920929,
					0.800000011920929,
					0.800000011920929,
					1
				],
				"metallicFactor":0,
				"roughnessFactor":0.5
			}
		}
	],
	"meshes":[
		{
			"name":"meHumanMale.001",
			"primitives":[
				{
					"attributes":{
						"POSITION":0,
						"NORMAL":1,
						"TEXCOORD_0":2,
						"JOINTS_0":3,
						"WEIGHTS_0":4
					},
					"indices":5,
					"material":0
				}
			]
		}
	],
	"skins":[
		{
			"inverseBindMatrices":6,
			"joints":[
				24,
				8,
				3,
				2,
				1,
				0,
				7,
				6,
				5,
				4,
				15,
				14,
				13,
				10,
				9,
				12,
				11,
				16,
				23,
				22,
				21,
				18,
				17,
				20,
				19
			],
			"name":"MaleArm"
		}
	],
	"accessors":[
		{
			"bufferView":0,
			"componentType":5126,
			"count":623,
			"max":[
				0.43607297539711,
				1.872779130935669,
				0.17680248618125916
			],
			"min":[
				-1.4360729455947876,
				0.002859830856323242,
				-0.1850365549325943
			],
			"type":"VEC3"
		},
		{
			"bufferView":1,
			"componentType":5126,
			"count":623,
			"type":"VEC3"
		},
		{
			"bufferView":2,
			"componentType":5126,
			"count":623,
			"type":"VEC2"
		},
		{
			"bufferView":3,
			"componentType":5121,
			"count":623,
			"type":"VEC4"
		},
		{
			"bufferView":4,
			"componentType":5126,
			"count":623,
			"type":"VEC4"
		},
		{
			"bufferView":5,
			"componentType":5123,
			"count":2448,
			"type":"SCALAR"
		},
		{
			"bufferView":6,
			"componentType":5126,
			"count":25,
			"type":"MAT4"
		}
	],
	"bufferViews":[
		{
			"buffer":0,
			"byteLength":7476,
			"byteOffset":0,
			"target":34962
		},
		{
			"buffer":0,
			"byteLength":7476,
			"byteOffset":7476,
			"target":34962
		},
		{
			"buffer":0,
			"byteLength":4984,
			"byteOffset":14952,
			"target":34962
		},
		{
			"buffer":0,
			"byteLength":2492,
			"byteOffset":19936,
			"target":34962
		},
		{
			"buffer":0,
			"byteLength":9968,
			"byteOffset":22428,
			"target":34962
		},
		{
			"buffer":0,
			"byteLength":4896,
			"byteOffset":32396,
			"target":34963
		},
		{
			"buffer":0,
			"byteLength":1600,
			"byteOffset":37292
		}
	],
	"buffers":[
		{
			"byteLength":38892,
			"uri":"human.bin"
		}
	]
}
