{
	"asset":{
		"generator":"Khronos glTF Blender I/O v4.1.62",
		"version":"2.0"
	},
	"scene":0,
	"scenes":[
		{
			"name":"Scene",
			"nodes":[
				0
			]
		}
	],
	"nodes":[
		{
			"mesh":0,
			"name":"male"
		}
	],
	"meshes":[
		{
			"name":"male",
			"primitives":[
				{
					"attributes":{
						"POSITION":0,
						"NORMAL":1
					},
					"indices":2
				}
			]
		}
	],
	"accessors":[
		{
			"bufferView":0,
			"componentType":5126,
			"count":1400,
			"max":[
				8.777563095092773,
				17.343387603759766,
				1.9348881244659424
			],
			"min":[
				0,
				0.0007261134451255202,
				-1.3206809759140015
			],
			"type":"VEC3"
		},
		{
			"bufferView":1,
			"componentType":5126,
			"count":1400,
			"type":"VEC3"
		},
		{
			"bufferView":2,
			"componentType":5123,
			"count":2100,
			"type":"SCALAR"
		}
	],
	"bufferViews":[
		{
			"buffer":0,
			"byteLength":16800,
			"byteOffset":0,
			"target":34962
		},
		{
			"buffer":0,
			"byteLength":16800,
			"byteOffset":16800,
			"target":34962
		},
		{
			"buffer":0,
			"byteLength":4200,
			"byteOffset":33600,
			"target":34963
		}
	],
	"buffers":[
		{
			"byteLength":37800,
			"uri":"human_male.bin"
		}
	]
}
