{
	"asset":{
		"generator":"Khronos glTF Blender I/O v4.1.62",
		"version":"2.0"
	},
	"scene":0,
	"scenes":[
		{
			"name":"Scene",
			"nodes":[
				0
			]
		}
	],
	"nodes":[
		{
			"mesh":0,
			"name":"wall.003",
			"rotation":[
				0,
				-0.3826834559440613,
				0,
				0.9238795638084412
			],
			"scale":[
				1.8499997854232788,
				3,
				1
			],
			"translation":[
				3.919252634048462,
				0.02831999957561493,
				-76.07148742675781
			]
		}
	],
	"materials":[
		{
			"name":"Stone.012",
			"pbrMetallicRoughness":{
				"baseColorFactor":[
					0.1923278123140335,
					0.22819341719150543,
					0.24619518220424652,
					1
				],
				"metallicFactor":0,
				"roughnessFactor":0.5
			}
		},
		{
			"name":"StoneDark.012",
			"pbrMetallicRoughness":{
				"baseColorFactor":[
					0.10092172026634216,
					0.11823292821645737,
					0.12790560722351074,
					1
				],
				"metallicFactor":0,
				"roughnessFactor":0.5
			}
		},
		{
			"name":"Stone.013",
			"pbrMetallicRoughness":{
				"baseColorFactor":[
					0.1923278123140335,
					0.22819341719150543,
					0.24619518220424652,
					1
				],
				"metallicFactor":0,
				"roughnessFactor":0.5
			}
		},
		{
			"name":"StoneDark.013",
			"pbrMetallicRoughness":{
				"baseColorFactor":[
					0.10092172026634216,
					0.11823292821645737,
					0.12790560722351074,
					1
				],
				"metallicFactor":0,
				"roughnessFactor":0.5
			}
		},
		{
			"name":"Stone.014",
			"pbrMetallicRoughness":{
				"baseColorFactor":[
					0.1923278123140335,
					0.22819341719150543,
					0.24619518220424652,
					1
				],
				"metallicFactor":0,
				"roughnessFactor":0.5
			}
		},
		{
			"name":"StoneDark.014",
			"pbrMetallicRoughness":{
				"baseColorFactor":[
					0.10092172026634216,
					0.11823292821645737,
					0.12790560722351074,
					1
				],
				"metallicFactor":0,
				"roughnessFactor":0.5
			}
		},
		{
			"name":"Stone.015",
			"pbrMetallicRoughness":{
				"baseColorFactor":[
					0.1923278123140335,
					0.22819341719150543,
					0.24619518220424652,
					1
				],
				"metallicFactor":0,
				"roughnessFactor":0.5
			}
		},
		{
			"name":"StoneDark.015",
			"pbrMetallicRoughness":{
				"baseColorFactor":[
					0.10092172026634216,
					0.11823292821645737,
					0.12790560722351074,
					1
				],
				"metallicFactor":0,
				"roughnessFactor":0.5
			}
		},
		{
			"name":"Stone.016",
			"pbrMetallicRoughness":{
				"baseColorFactor":[
					0.1923278123140335,
					0.22819341719150543,
					0.24619518220424652,
					1
				],
				"metallicFactor":0,
				"roughnessFactor":0.5
			}
		},
		{
			"name":"StoneDark.016",
			"pbrMetallicRoughness":{
				"baseColorFactor":[
					0.10092172026634216,
					0.11823292821645737,
					0.12790560722351074,
					1
				],
				"metallicFactor":0,
				"roughnessFactor":0.5
			}
		},
		{
			"name":"Stone.017",
			"pbrMetallicRoughness":{
				"baseColorFactor":[
					0.1923278123140335,
					0.22819341719150543,
					0.24619518220424652,
					1
				],
				"metallicFactor":0,
				"roughnessFactor":0.5
			}
		},
		{
			"name":"StoneDark.017",
			"pbrMetallicRoughness":{
				"baseColorFactor":[
					0.10092172026634216,
					0.11823292821645737,
					0.12790560722351074,
					1
				],
				"metallicFactor":0,
				"roughnessFactor":0.5
			}
		},
		{
			"name":"Stone.005",
			"pbrMetallicRoughness":{
				"baseColorFactor":[
					0.1923278123140335,
					0.22819341719150543,
					0.24619518220424652,
					1
				],
				"metallicFactor":0,
				"roughnessFactor":0.5
			}
		},
		{
			"name":"StoneDark.005",
			"pbrMetallicRoughness":{
				"baseColorFactor":[
					0.10092172026634216,
					0.11823292821645737,
					0.12790560722351074,
					1
				],
				"metallicFactor":0,
				"roughnessFactor":0.5
			}
		},
		{
			"name":"Stone.006",
			"pbrMetallicRoughness":{
				"baseColorFactor":[
					0.1923278123140335,
					0.22819341719150543,
					0.24619518220424652,
					1
				],
				"metallicFactor":0,
				"roughnessFactor":0.5
			}
		},
		{
			"name":"StoneDark.006",
			"pbrMetallicRoughness":{
				"baseColorFactor":[
					0.10092172026634216,
					0.11823292821645737,
					0.12790560722351074,
					1
				],
				"metallicFactor":0,
				"roughnessFactor":0.5
			}
		}
	],
	"meshes":[
		{
			"name":"Cube.004",
			"primitives":[
				{
					"attributes":{
						"POSITION":0,
						"NORMAL":1,
						"TEXCOORD_0":2
					},
					"indices":3,
					"material":0
				},
				{
					"attributes":{
						"POSITION":4,
						"NORMAL":5,
						"TEXCOORD_0":6
					},
					"indices":7,
					"material":1
				},
				{
					"attributes":{
						"POSITION":8,
						"NORMAL":9,
						"TEXCOORD_0":10
					},
					"indices":11,
					"material":2
				},
				{
					"attributes":{
						"POSITION":12,
						"NORMAL":13,
						"TEXCOORD_0":14
					},
					"indices":7,
					"material":3
				},
				{
					"attributes":{
						"POSITION":15,
						"NORMAL":16,
						"TEXCOORD_0":17
					},
					"indices":18,
					"material":4
				},
				{
					"attributes":{
						"POSITION":19,
						"NORMAL":20,
						"TEXCOORD_0":21
					},
					"indices":7,
					"material":5
				},
				{
					"attributes":{
						"POSITION":22,
						"NORMAL":23,
						"TEXCOORD_0":24
					},
					"indices":25,
					"material":6
				},
				{
					"attributes":{
						"POSITION":26,
						"NORMAL":27,
						"TEXCOORD_0":28
					},
					"indices":29,
					"material":7
				},
				{
					"attributes":{
						"POSITION":30,
						"NORMAL":31,
						"TEXCOORD_0":32
					},
					"indices":33,
					"material":8
				},
				{
					"attributes":{
						"POSITION":34,
						"NORMAL":35,
						"TEXCOORD_0":36
					},
					"indices":7,
					"material":9
				},
				{
					"attributes":{
						"POSITION":37,
						"NORMAL":38,
						"TEXCOORD_0":39
					},
					"indices":40,
					"material":10
				},
				{
					"attributes":{
						"POSITION":41,
						"NORMAL":42,
						"TEXCOORD_0":43
					},
					"indices":44,
					"material":11
				},
				{
					"attributes":{
						"POSITION":45,
						"NORMAL":46,
						"TEXCOORD_0":47
					},
					"indices":48,
					"material":12
				},
				{
					"attributes":{
						"POSITION":49,
						"NORMAL":50,
						"TEXCOORD_0":51
					},
					"indices":52,
					"material":13
				},
				{
					"attributes":{
						"POSITION":53,
						"NORMAL":54,
						"TEXCOORD_0":55
					},
					"indices":56,
					"material":14
				},
				{
					"attributes":{
						"POSITION":57,
						"NORMAL":58,
						"TEXCOORD_0":59
					},
					"indices":60,
					"material":15
				}
			]
		}
	],
	"accessors":[
		{
			"bufferView":0,
			"componentType":5126,
			"count":5663,
			"max":[
				-2.7125604152679443,
				3.5999999046325684,
				59.6129264831543
			],
			"min":[
				-3.43704891204834,
				0.4000000059604645,
				52.21292495727539
			],
			"type":"VEC3"
		},
		{
			"bufferView":1,
			"componentType":5126,
			"count":5663,
			"type":"VEC3"
		},
		{
			"bufferView":2,
			"componentType":5126,
			"count":5663,
			"type":"VEC2"
		},
		{
			"bufferView":3,
			"componentType":5123,
			"count":16476,
			"type":"SCALAR"
		},
		{
			"bufferView":4,
			"componentType":5126,
			"count":406,
			"max":[
				-2.6693992614746094,
				4,
				59.6129264831543
			],
			"min":[
				-3.4802098274230957,
				9.313225746154785e-10,
				52.21292495727539
			],
			"type":"VEC3"
		},
		{
			"bufferView":5,
			"componentType":5126,
			"count":406,
			"type":"VEC3"
		},
		{
			"bufferView":6,
			"componentType":5126,
			"count":406,
			"type":"VEC2"
		},
		{
			"bufferView":7,
			"componentType":5123,
			"count":804,
			"type":"SCALAR"
		},
		{
			"bufferView":8,
			"componentType":5126,
			"count":5620,
			"max":[
				-2.712559461593628,
				3.5999999046325684,
				10.2225341796875
			],
			"min":[
				-3.4370481967926025,
				0.4000000059604645,
				2.0225372314453125
			],
			"type":"VEC3"
		},
		{
			"bufferView":9,
			"componentType":5126,
			"count":5620,
			"type":"VEC3"
		},
		{
			"bufferView":10,
			"componentType":5126,
			"count":5620,
			"type":"VEC2"
		},
		{
			"bufferView":11,
			"componentType":5123,
			"count":16476,
			"type":"SCALAR"
		},
		{
			"bufferView":12,
			"componentType":5126,
			"count":406,
			"max":[
				-2.669398307800293,
				4,
				10.2225341796875
			],
			"min":[
				-3.4802091121673584,
				1.862645149230957e-09,
				2.022541046142578
			],
			"type":"VEC3"
		},
		{
			"bufferView":13,
			"componentType":5126,
			"count":406,
			"type":"VEC3"
		},
		{
			"bufferView":14,
			"componentType":5126,
			"count":406,
			"type":"VEC2"
		},
		{
			"bufferView":15,
			"componentType":5126,
			"count":5654,
			"max":[
				-2.7125601768493652,
				3.5999999046325684,
				52.24244689941406
			],
			"min":[
				-3.43704891204834,
				0.4000000059604645,
				40.24244689941406
			],
			"type":"VEC3"
		},
		{
			"bufferView":16,
			"componentType":5126,
			"count":5654,
			"type":"VEC3"
		},
		{
			"bufferView":17,
			"componentType":5126,
			"count":5654,
			"type":"VEC2"
		},
		{
			"bufferView":18,
			"componentType":5123,
			"count":16476,
			"type":"SCALAR"
		},
		{
			"bufferView":19,
			"componentType":5126,
			"count":406,
			"max":[
				-2.669398784637451,
				4,
				52.24244689941406
			],
			"min":[
				-3.4802098274230957,
				1.862645149230957e-09,
				40.24244689941406
			],
			"type":"VEC3"
		},
		{
			"bufferView":20,
			"componentType":5126,
			"count":406,
			"type":"VEC3"
		},
		{
			"bufferView":21,
			"componentType":5126,
			"count":406,
			"type":"VEC2"
		},
		{
			"bufferView":22,
			"componentType":5126,
			"count":8366,
			"max":[
				-2.71256947517395,
				3.5999999046325684,
				40.22545623779297
			],
			"min":[
				-3.437058925628662,
				0.4000000059604645,
				22.225460052490234
			],
			"type":"VEC3"
		},
		{
			"bufferView":23,
			"componentType":5126,
			"count":8366,
			"type":"VEC3"
		},
		{
			"bufferView":24,
			"componentType":5126,
			"count":8366,
			"type":"VEC2"
		},
		{
			"bufferView":25,
			"componentType":5123,
			"count":25968,
			"type":"SCALAR"
		},
		{
			"bufferView":26,
			"componentType":5126,
			"count":487,
			"max":[
				-2.6694085597991943,
				4,
				40.22545623779297
			],
			"min":[
				-3.480219841003418,
				1.8404486823442312e-09,
				22.225460052490234
			],
			"type":"VEC3"
		},
		{
			"bufferView":27,
			"componentType":5126,
			"count":487,
			"type":"VEC3"
		},
		{
			"bufferView":28,
			"componentType":5126,
			"count":487,
			"type":"VEC2"
		},
		{
			"bufferView":29,
			"componentType":5123,
			"count":996,
			"type":"SCALAR"
		},
		{
			"bufferView":30,
			"componentType":5126,
			"count":5608,
			"max":[
				-2.712559700012207,
				3.5999999046325684,
				22.2247314453125
			],
			"min":[
				-3.4370484352111816,
				0.4000000059604645,
				10.2247314453125
			],
			"type":"VEC3"
		},
		{
			"bufferView":31,
			"componentType":5126,
			"count":5608,
			"type":"VEC3"
		},
		{
			"bufferView":32,
			"componentType":5126,
			"count":5608,
			"type":"VEC2"
		},
		{
			"bufferView":33,
			"componentType":5123,
			"count":16476,
			"type":"SCALAR"
		},
		{
			"bufferView":34,
			"componentType":5126,
			"count":406,
			"max":[
				-2.669398307800293,
				4,
				22.2247314453125
			],
			"min":[
				-3.4802093505859375,
				1.862645149230957e-09,
				10.2247314453125
			],
			"type":"VEC3"
		},
		{
			"bufferView":35,
			"componentType":5126,
			"count":406,
			"type":"VEC3"
		},
		{
			"bufferView":36,
			"componentType":5126,
			"count":406,
			"type":"VEC2"
		},
		{
			"bufferView":37,
			"componentType":5126,
			"count":4437,
			"max":[
				-2.5445265769958496,
				3.5999999046325684,
				1.9999998807907104
			],
			"min":[
				-3.43704891204834,
				0.4000000059604645,
				-0.6701860427856445
			],
			"type":"VEC3"
		},
		{
			"bufferView":38,
			"componentType":5126,
			"count":4437,
			"type":"VEC3"
		},
		{
			"bufferView":39,
			"componentType":5126,
			"count":4437,
			"type":"VEC2"
		},
		{
			"bufferView":40,
			"componentType":5123,
			"count":12906,
			"type":"SCALAR"
		},
		{
			"bufferView":41,
			"componentType":5126,
			"count":396,
			"max":[
				-2.5192389488220215,
				4,
				1.9999998807907104
			],
			"min":[
				-3.4802098274230957,
				9.313225746154785e-10,
				-0.7500351071357727
			],
			"type":"VEC3"
		},
		{
			"bufferView":42,
			"componentType":5126,
			"count":396,
			"type":"VEC3"
		},
		{
			"bufferView":43,
			"componentType":5126,
			"count":396,
			"type":"VEC2"
		},
		{
			"bufferView":44,
			"componentType":5123,
			"count":744,
			"type":"SCALAR"
		},
		{
			"bufferView":45,
			"componentType":5126,
			"count":392,
			"max":[
				-2.646327257156372,
				3.5999999046325684,
				0.4854393005371094
			],
			"min":[
				-3.353301763534546,
				0.4000000059604645,
				0.3068504333496094
			],
			"type":"VEC3"
		},
		{
			"bufferView":46,
			"componentType":5126,
			"count":392,
			"type":"VEC3"
		},
		{
			"bufferView":47,
			"componentType":5126,
			"count":392,
			"type":"VEC2"
		},
		{
			"bufferView":48,
			"componentType":5123,
			"count":978,
			"type":"SCALAR"
		},
		{
			"bufferView":49,
			"componentType":5126,
			"count":16,
			"max":[
				-2.603166341781616,
				4,
				0.3068504333496094
			],
			"min":[
				-3.4139771461486816,
				9.313225746154785e-10,
				0.3068504333496094
			],
			"type":"VEC3"
		},
		{
			"bufferView":50,
			"componentType":5126,
			"count":16,
			"type":"VEC3"
		},
		{
			"bufferView":51,
			"componentType":5126,
			"count":16,
			"type":"VEC2"
		},
		{
			"bufferView":52,
			"componentType":5123,
			"count":36,
			"type":"SCALAR"
		},
		{
			"bufferView":53,
			"componentType":5126,
			"count":45131,
			"max":[
				29.19623374938965,
				3.5999999046325684,
				0.56451416015625
			],
			"min":[
				-2.803769826889038,
				0.4000000059604645,
				-0.7758064270019531
			],
			"type":"VEC3"
		},
		{
			"bufferView":54,
			"componentType":5126,
			"count":45131,
			"type":"VEC3"
		},
		{
			"bufferView":55,
			"componentType":5126,
			"count":45131,
			"type":"VEC2"
		},
		{
			"bufferView":56,
			"componentType":5123,
			"count":131808,
			"type":"SCALAR"
		},
		{
			"bufferView":57,
			"componentType":5126,
			"count":3408,
			"max":[
				29.19623374938965,
				4,
				0.6443595886230469
			],
			"min":[
				-2.803769826889038,
				1.862645149230957e-09,
				-0.85565185546875
			],
			"type":"VEC3"
		},
		{
			"bufferView":58,
			"componentType":5126,
			"count":3408,
			"type":"VEC3"
		},
		{
			"bufferView":59,
			"componentType":5126,
			"count":3408,
			"type":"VEC2"
		},
		{
			"bufferView":60,
			"componentType":5123,
			"count":6432,
			"type":"SCALAR"
		}
	],
	"bufferViews":[
		{
			"buffer":0,
			"byteLength":67956,
			"byteOffset":0,
			"target":34962
		},
		{
			"buffer":0,
			"byteLength":67956,
			"byteOffset":67956,
			"target":34962
		},
		{
			"buffer":0,
			"byteLength":45304,
			"byteOffset":135912,
			"target":34962
		},
		{
			"buffer":0,
			"byteLength":32952,
			"byteOffset":181216,
			"target":34963
		},
		{
			"buffer":0,
			"byteLength":4872,
			"byteOffset":214168,
			"target":34962
		},
		{
			"buffer":0,
			"byteLength":4872,
			"byteOffset":219040,
			"target":34962
		},
		{
			"buffer":0,
			"byteLength":3248,
			"byteOffset":223912,
			"target":34962
		},
		{
			"buffer":0,
			"byteLength":1608,
			"byteOffset":227160,
			"target":34963
		},
		{
			"buffer":0,
			"byteLength":67440,
			"byteOffset":228768,
			"target":34962
		},
		{
			"buffer":0,
			"byteLength":67440,
			"byteOffset":296208,
			"target":34962
		},
		{
			"buffer":0,
			"byteLength":44960,
			"byteOffset":363648,
			"target":34962
		},
		{
			"buffer":0,
			"byteLength":32952,
			"byteOffset":408608,
			"target":34963
		},
		{
			"buffer":0,
			"byteLength":4872,
			"byteOffset":441560,
			"target":34962
		},
		{
			"buffer":0,
			"byteLength":4872,
			"byteOffset":446432,
			"target":34962
		},
		{
			"buffer":0,
			"byteLength":3248,
			"byteOffset":451304,
			"target":34962
		},
		{
			"buffer":0,
			"byteLength":67848,
			"byteOffset":454552,
			"target":34962
		},
		{
			"buffer":0,
			"byteLength":67848,
			"byteOffset":522400,
			"target":34962
		},
		{
			"buffer":0,
			"byteLength":45232,
			"byteOffset":590248,
			"target":34962
		},
		{
			"buffer":0,
			"byteLength":32952,
			"byteOffset":635480,
			"target":34963
		},
		{
			"buffer":0,
			"byteLength":4872,
			"byteOffset":668432,
			"target":34962
		},
		{
			"buffer":0,
			"byteLength":4872,
			"byteOffset":673304,
			"target":34962
		},
		{
			"buffer":0,
			"byteLength":3248,
			"byteOffset":678176,
			"target":34962
		},
		{
			"buffer":0,
			"byteLength":100392,
			"byteOffset":681424,
			"target":34962
		},
		{
			"buffer":0,
			"byteLength":100392,
			"byteOffset":781816,
			"target":34962
		},
		{
			"buffer":0,
			"byteLength":66928,
			"byteOffset":882208,
			"target":34962
		},
		{
			"buffer":0,
			"byteLength":51936,
			"byteOffset":949136,
			"target":34963
		},
		{
			"buffer":0,
			"byteLength":5844,
			"byteOffset":1001072,
			"target":34962
		},
		{
			"buffer":0,
			"byteLength":5844,
			"byteOffset":1006916,
			"target":34962
		},
		{
			"buffer":0,
			"byteLength":3896,
			"byteOffset":1012760,
			"target":34962
		},
		{
			"buffer":0,
			"byteLength":1992,
			"byteOffset":1016656,
			"target":34963
		},
		{
			"buffer":0,
			"byteLength":67296,
			"byteOffset":1018648,
			"target":34962
		},
		{
			"buffer":0,
			"byteLength":67296,
			"byteOffset":1085944,
			"target":34962
		},
		{
			"buffer":0,
			"byteLength":44864,
			"byteOffset":1153240,
			"target":34962
		},
		{
			"buffer":0,
			"byteLength":32952,
			"byteOffset":1198104,
			"target":34963
		},
		{
			"buffer":0,
			"byteLength":4872,
			"byteOffset":1231056,
			"target":34962
		},
		{
			"buffer":0,
			"byteLength":4872,
			"byteOffset":1235928,
			"target":34962
		},
		{
			"buffer":0,
			"byteLength":3248,
			"byteOffset":1240800,
			"target":34962
		},
		{
			"buffer":0,
			"byteLength":53244,
			"byteOffset":1244048,
			"target":34962
		},
		{
			"buffer":0,
			"byteLength":53244,
			"byteOffset":1297292,
			"target":34962
		},
		{
			"buffer":0,
			"byteLength":35496,
			"byteOffset":1350536,
			"target":34962
		},
		{
			"buffer":0,
			"byteLength":25812,
			"byteOffset":1386032,
			"target":34963
		},
		{
			"buffer":0,
			"byteLength":4752,
			"byteOffset":1411844,
			"target":34962
		},
		{
			"buffer":0,
			"byteLength":4752,
			"byteOffset":1416596,
			"target":34962
		},
		{
			"buffer":0,
			"byteLength":3168,
			"byteOffset":1421348,
			"target":34962
		},
		{
			"buffer":0,
			"byteLength":1488,
			"byteOffset":1424516,
			"target":34963
		},
		{
			"buffer":0,
			"byteLength":4704,
			"byteOffset":1426004,
			"target":34962
		},
		{
			"buffer":0,
			"byteLength":4704,
			"byteOffset":1430708,
			"target":34962
		},
		{
			"buffer":0,
			"byteLength":3136,
			"byteOffset":1435412,
			"target":34962
		},
		{
			"buffer":0,
			"byteLength":1956,
			"byteOffset":1438548,
			"target":34963
		},
		{
			"buffer":0,
			"byteLength":192,
			"byteOffset":1440504,
			"target":34962
		},
		{
			"buffer":0,
			"byteLength":192,
			"byteOffset":1440696,
			"target":34962
		},
		{
			"buffer":0,
			"byteLength":128,
			"byteOffset":1440888,
			"target":34962
		},
		{
			"buffer":0,
			"byteLength":72,
			"byteOffset":1441016,
			"target":34963
		},
		{
			"buffer":0,
			"byteLength":541572,
			"byteOffset":1441088,
			"target":34962
		},
		{
			"buffer":0,
			"byteLength":541572,
			"byteOffset":1982660,
			"target":34962
		},
		{
			"buffer":0,
			"byteLength":361048,
			"byteOffset":2524232,
			"target":34962
		},
		{
			"buffer":0,
			"byteLength":263616,
			"byteOffset":2885280,
			"target":34963
		},
		{
			"buffer":0,
			"byteLength":40896,
			"byteOffset":3148896,
			"target":34962
		},
		{
			"buffer":0,
			"byteLength":40896,
			"byteOffset":3189792,
			"target":34962
		},
		{
			"buffer":0,
			"byteLength":27264,
			"byteOffset":3230688,
			"target":34962
		},
		{
			"buffer":0,
			"byteLength":12864,
			"byteOffset":3257952,
			"target":34963
		}
	],
	"buffers":[
		{
			"byteLength":3270816,
			"uri":"wall2.bin"
		}
	]
}
