{
	"asset":{
		"generator":"Khronos glTF Blender I/O v4.1.62",
		"version":"2.0"
	},
	"scene":0,
	"scenes":[
		{
			"name":"Scene",
			"nodes":[
				0
			]
		}
	],
	"nodes":[
		{
			"mesh":0,
			"name":"wall.001",
			"rotation":[
				0,
				1,
				0,
				0
			],
			"scale":[
				1.850000023841858,
				3,
				1
			],
			"translation":[
				0.6744999885559082,
				0.02831999957561493,
				-56.683998107910156
			]
		}
	],
	"materials":[
		{
			"name":"Stone.039",
			"pbrMetallicRoughness":{
				"baseColorFactor":[
					0.1923278123140335,
					0.22819341719150543,
					0.24619518220424652,
					1
				],
				"metallicFactor":0,
				"roughnessFactor":0.5
			}
		},
		{
			"name":"StoneDark.039",
			"pbrMetallicRoughness":{
				"baseColorFactor":[
					0.10092172026634216,
					0.11823292821645737,
					0.12790560722351074,
					1
				],
				"metallicFactor":0,
				"roughnessFactor":0.5
			}
		},
		{
			"name":"Stone.040",
			"pbrMetallicRoughness":{
				"baseColorFactor":[
					0.1923278123140335,
					0.22819341719150543,
					0.24619518220424652,
					1
				],
				"metallicFactor":0,
				"roughnessFactor":0.5
			}
		},
		{
			"name":"StoneDark.040",
			"pbrMetallicRoughness":{
				"baseColorFactor":[
					0.10092172026634216,
					0.11823292821645737,
					0.12790560722351074,
					1
				],
				"metallicFactor":0,
				"roughnessFactor":0.5
			}
		}
	],
	"meshes":[
		{
			"name":"Cube.010",
			"primitives":[
				{
					"attributes":{
						"POSITION":0,
						"NORMAL":1,
						"TEXCOORD_0":2
					},
					"indices":3,
					"material":0
				},
				{
					"attributes":{
						"POSITION":4,
						"NORMAL":5,
						"TEXCOORD_0":6
					},
					"indices":7,
					"material":1
				},
				{
					"attributes":{
						"POSITION":8,
						"NORMAL":9,
						"TEXCOORD_0":10
					},
					"indices":11,
					"material":2
				},
				{
					"attributes":{
						"POSITION":12,
						"NORMAL":13,
						"TEXCOORD_0":14
					},
					"indices":15,
					"material":3
				}
			]
		}
	],
	"accessors":[
		{
			"bufferView":0,
			"componentType":5126,
			"count":44691,
			"max":[
				2.000000238418579,
				3.5999999046325684,
				0.6701517105102539
			],
			"min":[
				-30,
				0.4000000059604645,
				-0.6701523065567017
			],
			"type":"VEC3"
		},
		{
			"bufferView":1,
			"componentType":5126,
			"count":44691,
			"type":"VEC3"
		},
		{
			"bufferView":2,
			"componentType":5126,
			"count":44691,
			"type":"VEC2"
		},
		{
			"bufferView":3,
			"componentType":5123,
			"count":131808,
			"type":"SCALAR"
		},
		{
			"bufferView":4,
			"componentType":5126,
			"count":3408,
			"max":[
				2,
				4,
				0.75
			],
			"min":[
				-30,
				0,
				-0.75
			],
			"type":"VEC3"
		},
		{
			"bufferView":5,
			"componentType":5126,
			"count":3408,
			"type":"VEC3"
		},
		{
			"bufferView":6,
			"componentType":5126,
			"count":3408,
			"type":"VEC2"
		},
		{
			"bufferView":7,
			"componentType":5123,
			"count":6432,
			"type":"SCALAR"
		},
		{
			"bufferView":8,
			"componentType":5126,
			"count":45087,
			"max":[
				-29.860727310180664,
				3.5999999046325684,
				-0.37888336181640625
			],
			"min":[
				-30.585220336914062,
				0.4000000059604645,
				-59.57889175415039
			],
			"type":"VEC3"
		},
		{
			"bufferView":9,
			"componentType":5126,
			"count":45087,
			"type":"VEC3"
		},
		{
			"bufferView":10,
			"componentType":5126,
			"count":45087,
			"type":"VEC2"
		},
		{
			"bufferView":11,
			"componentType":5123,
			"count":131808,
			"type":"SCALAR"
		},
		{
			"bufferView":12,
			"componentType":5126,
			"count":3248,
			"max":[
				-29.81756591796875,
				4,
				-0.37888336181640625
			],
			"min":[
				-30.628379821777344,
				9.313225746154785e-10,
				-59.57889175415039
			],
			"type":"VEC3"
		},
		{
			"bufferView":13,
			"componentType":5126,
			"count":3248,
			"type":"VEC3"
		},
		{
			"bufferView":14,
			"componentType":5126,
			"count":3248,
			"type":"VEC2"
		},
		{
			"bufferView":15,
			"componentType":5123,
			"count":6432,
			"type":"SCALAR"
		}
	],
	"bufferViews":[
		{
			"buffer":0,
			"byteLength":536292,
			"byteOffset":0,
			"target":34962
		},
		{
			"buffer":0,
			"byteLength":536292,
			"byteOffset":536292,
			"target":34962
		},
		{
			"buffer":0,
			"byteLength":357528,
			"byteOffset":1072584,
			"target":34962
		},
		{
			"buffer":0,
			"byteLength":263616,
			"byteOffset":1430112,
			"target":34963
		},
		{
			"buffer":0,
			"byteLength":40896,
			"byteOffset":1693728,
			"target":34962
		},
		{
			"buffer":0,
			"byteLength":40896,
			"byteOffset":1734624,
			"target":34962
		},
		{
			"buffer":0,
			"byteLength":27264,
			"byteOffset":1775520,
			"target":34962
		},
		{
			"buffer":0,
			"byteLength":12864,
			"byteOffset":1802784,
			"target":34963
		},
		{
			"buffer":0,
			"byteLength":541044,
			"byteOffset":1815648,
			"target":34962
		},
		{
			"buffer":0,
			"byteLength":541044,
			"byteOffset":2356692,
			"target":34962
		},
		{
			"buffer":0,
			"byteLength":360696,
			"byteOffset":2897736,
			"target":34962
		},
		{
			"buffer":0,
			"byteLength":263616,
			"byteOffset":3258432,
			"target":34963
		},
		{
			"buffer":0,
			"byteLength":38976,
			"byteOffset":3522048,
			"target":34962
		},
		{
			"buffer":0,
			"byteLength":38976,
			"byteOffset":3561024,
			"target":34962
		},
		{
			"buffer":0,
			"byteLength":25984,
			"byteOffset":3600000,
			"target":34962
		},
		{
			"buffer":0,
			"byteLength":12864,
			"byteOffset":3625984,
			"target":34963
		}
	],
	"buffers":[
		{
			"byteLength":3638848,
			"uri":"wall1.bin"
		}
	]
}
