{
	"asset":{
		"generator":"Khronos glTF Blender I/O v4.1.62",
		"version":"2.0"
	},
	"scene":0,
	"scenes":[
		{
			"name":"Scene",
			"nodes":[
				0
			]
		}
	],
	"nodes":[
		{
			"mesh":0,
			"name":"wall.001",
			"rotation":[
				0,
				-0.9238795638084412,
				0,
				0.3826833963394165
			],
			"scale":[
				1.850000262260437,
				3,
				1
			],
			"translation":[
				-39.477813720703125,
				0.02831999957561493,
				-40.54574203491211
			]
		}
	],
	"materials":[
		{
			"name":"Stone.003",
			"pbrMetallicRoughness":{
				"baseColorFactor":[
					0.1923278123140335,
					0.22819341719150543,
					0.24619518220424652,
					1
				],
				"metallicFactor":0,
				"roughnessFactor":0.5
			}
		},
		{
			"name":"StoneDark.003",
			"pbrMetallicRoughness":{
				"baseColorFactor":[
					0.10092172026634216,
					0.11823292821645737,
					0.12790560722351074,
					1
				],
				"metallicFactor":0,
				"roughnessFactor":0.5
			}
		},
		{
			"name":"Stone.004",
			"pbrMetallicRoughness":{
				"baseColorFactor":[
					0.1923278123140335,
					0.22819341719150543,
					0.24619518220424652,
					1
				],
				"metallicFactor":0,
				"roughnessFactor":0.5
			}
		},
		{
			"name":"StoneDark.004",
			"pbrMetallicRoughness":{
				"baseColorFactor":[
					0.10092172026634216,
					0.11823292821645737,
					0.12790560722351074,
					1
				],
				"metallicFactor":0,
				"roughnessFactor":0.5
			}
		},
		{
			"name":"Stone.028",
			"pbrMetallicRoughness":{
				"baseColorFactor":[
					0.1923278123140335,
					0.22819341719150543,
					0.24619518220424652,
					1
				],
				"metallicFactor":0,
				"roughnessFactor":0.5
			}
		},
		{
			"name":"StoneDark.028",
			"pbrMetallicRoughness":{
				"baseColorFactor":[
					0.10092172026634216,
					0.11823292821645737,
					0.12790560722351074,
					1
				],
				"metallicFactor":0,
				"roughnessFactor":0.5
			}
		},
		{
			"name":"Stone.029",
			"pbrMetallicRoughness":{
				"baseColorFactor":[
					0.1923278123140335,
					0.22819341719150543,
					0.24619518220424652,
					1
				],
				"metallicFactor":0,
				"roughnessFactor":0.5
			}
		},
		{
			"name":"StoneDark.029",
			"pbrMetallicRoughness":{
				"baseColorFactor":[
					0.10092172026634216,
					0.11823292821645737,
					0.12790560722351074,
					1
				],
				"metallicFactor":0,
				"roughnessFactor":0.5
			}
		},
		{
			"name":"Stone.030",
			"pbrMetallicRoughness":{
				"baseColorFactor":[
					0.1923278123140335,
					0.22819341719150543,
					0.24619518220424652,
					1
				],
				"metallicFactor":0,
				"roughnessFactor":0.5
			}
		},
		{
			"name":"StoneDark.030",
			"pbrMetallicRoughness":{
				"baseColorFactor":[
					0.10092172026634216,
					0.11823292821645737,
					0.12790560722351074,
					1
				],
				"metallicFactor":0,
				"roughnessFactor":0.5
			}
		},
		{
			"name":"Stone.031",
			"pbrMetallicRoughness":{
				"baseColorFactor":[
					0.1923278123140335,
					0.22819341719150543,
					0.24619518220424652,
					1
				],
				"metallicFactor":0,
				"roughnessFactor":0.5
			}
		},
		{
			"name":"StoneDark.031",
			"pbrMetallicRoughness":{
				"baseColorFactor":[
					0.10092172026634216,
					0.11823292821645737,
					0.12790560722351074,
					1
				],
				"metallicFactor":0,
				"roughnessFactor":0.5
			}
		},
		{
			"name":"Stone.032",
			"pbrMetallicRoughness":{
				"baseColorFactor":[
					0.1923278123140335,
					0.22819341719150543,
					0.24619518220424652,
					1
				],
				"metallicFactor":0,
				"roughnessFactor":0.5
			}
		},
		{
			"name":"StoneDark.032",
			"pbrMetallicRoughness":{
				"baseColorFactor":[
					0.10092172026634216,
					0.11823292821645737,
					0.12790560722351074,
					1
				],
				"metallicFactor":0,
				"roughnessFactor":0.5
			}
		},
		{
			"name":"Stone.038",
			"pbrMetallicRoughness":{
				"baseColorFactor":[
					0.1923278123140335,
					0.22819341719150543,
					0.24619518220424652,
					1
				],
				"metallicFactor":0,
				"roughnessFactor":0.5
			}
		},
		{
			"name":"StoneDark.038",
			"pbrMetallicRoughness":{
				"baseColorFactor":[
					0.10092172026634216,
					0.11823292821645737,
					0.12790560722351074,
					1
				],
				"metallicFactor":0,
				"roughnessFactor":0.5
			}
		}
	],
	"meshes":[
		{
			"name":"Cube.002",
			"primitives":[
				{
					"attributes":{
						"POSITION":0,
						"NORMAL":1,
						"TEXCOORD_0":2
					},
					"indices":3,
					"material":0
				},
				{
					"attributes":{
						"POSITION":4,
						"NORMAL":5,
						"TEXCOORD_0":6
					},
					"indices":7,
					"material":1
				},
				{
					"attributes":{
						"POSITION":8,
						"NORMAL":9,
						"TEXCOORD_0":10
					},
					"indices":11,
					"material":2
				},
				{
					"attributes":{
						"POSITION":12,
						"NORMAL":13,
						"TEXCOORD_0":14
					},
					"indices":15,
					"material":3
				},
				{
					"attributes":{
						"POSITION":16,
						"NORMAL":17,
						"TEXCOORD_0":18
					},
					"indices":19,
					"material":4
				},
				{
					"attributes":{
						"POSITION":20,
						"NORMAL":21,
						"TEXCOORD_0":22
					},
					"indices":23,
					"material":5
				},
				{
					"attributes":{
						"POSITION":24,
						"NORMAL":25,
						"TEXCOORD_0":26
					},
					"indices":27,
					"material":6
				},
				{
					"attributes":{
						"POSITION":28,
						"NORMAL":29,
						"TEXCOORD_0":30
					},
					"indices":23,
					"material":7
				},
				{
					"attributes":{
						"POSITION":31,
						"NORMAL":32,
						"TEXCOORD_0":33
					},
					"indices":34,
					"material":8
				},
				{
					"attributes":{
						"POSITION":35,
						"NORMAL":36,
						"TEXCOORD_0":37
					},
					"indices":38,
					"material":9
				},
				{
					"attributes":{
						"POSITION":39,
						"NORMAL":40,
						"TEXCOORD_0":41
					},
					"indices":42,
					"material":10
				},
				{
					"attributes":{
						"POSITION":43,
						"NORMAL":44,
						"TEXCOORD_0":45
					},
					"indices":46,
					"material":11
				},
				{
					"attributes":{
						"POSITION":47,
						"NORMAL":48,
						"TEXCOORD_0":49
					},
					"indices":50,
					"material":12
				},
				{
					"attributes":{
						"POSITION":51,
						"NORMAL":52,
						"TEXCOORD_0":53
					},
					"indices":38,
					"material":13
				},
				{
					"attributes":{
						"POSITION":54,
						"NORMAL":55,
						"TEXCOORD_0":56
					},
					"indices":57,
					"material":14
				},
				{
					"attributes":{
						"POSITION":58,
						"NORMAL":59,
						"TEXCOORD_0":60
					},
					"indices":61,
					"material":15
				}
			]
		}
	],
	"accessors":[
		{
			"bufferView":0,
			"componentType":5126,
			"count":44774,
			"max":[
				2.000000238418579,
				3.5999999046325684,
				0.6701517105102539
			],
			"min":[
				-30,
				0.4000000059604645,
				-0.6701523065567017
			],
			"type":"VEC3"
		},
		{
			"bufferView":1,
			"componentType":5126,
			"count":44774,
			"type":"VEC3"
		},
		{
			"bufferView":2,
			"componentType":5126,
			"count":44774,
			"type":"VEC2"
		},
		{
			"bufferView":3,
			"componentType":5123,
			"count":131808,
			"type":"SCALAR"
		},
		{
			"bufferView":4,
			"componentType":5126,
			"count":3408,
			"max":[
				2,
				4,
				0.75
			],
			"min":[
				-30,
				0,
				-0.75
			],
			"type":"VEC3"
		},
		{
			"bufferView":5,
			"componentType":5126,
			"count":3408,
			"type":"VEC3"
		},
		{
			"bufferView":6,
			"componentType":5126,
			"count":3408,
			"type":"VEC2"
		},
		{
			"bufferView":7,
			"componentType":5123,
			"count":6432,
			"type":"SCALAR"
		},
		{
			"bufferView":8,
			"componentType":5126,
			"count":380,
			"max":[
				-29.878244400024414,
				3.5999999046325684,
				-0.37888336181640625
			],
			"min":[
				-30.585220336914062,
				0.4000000059604645,
				-0.5574722290039062
			],
			"type":"VEC3"
		},
		{
			"bufferView":9,
			"componentType":5126,
			"count":380,
			"type":"VEC3"
		},
		{
			"bufferView":10,
			"componentType":5126,
			"count":380,
			"type":"VEC2"
		},
		{
			"bufferView":11,
			"componentType":5123,
			"count":978,
			"type":"SCALAR"
		},
		{
			"bufferView":12,
			"componentType":5126,
			"count":16,
			"max":[
				-29.817569732666016,
				4,
				-0.37888336181640625
			],
			"min":[
				-30.628379821777344,
				9.313225746154785e-10,
				-0.37888336181640625
			],
			"type":"VEC3"
		},
		{
			"bufferView":13,
			"componentType":5126,
			"count":16,
			"type":"VEC3"
		},
		{
			"bufferView":14,
			"componentType":5126,
			"count":16,
			"type":"VEC2"
		},
		{
			"bufferView":15,
			"componentType":5123,
			"count":36,
			"type":"SCALAR"
		},
		{
			"bufferView":16,
			"componentType":5126,
			"count":5593,
			"max":[
				-29.80362319946289,
				3.5999999046325684,
				-1.8658647537231445
			],
			"min":[
				-30.52811050415039,
				0.4000000059604645,
				-9.265865325927734
			],
			"type":"VEC3"
		},
		{
			"bufferView":17,
			"componentType":5126,
			"count":5593,
			"type":"VEC3"
		},
		{
			"bufferView":18,
			"componentType":5126,
			"count":5593,
			"type":"VEC2"
		},
		{
			"bufferView":19,
			"componentType":5123,
			"count":16476,
			"type":"SCALAR"
		},
		{
			"bufferView":20,
			"componentType":5126,
			"count":426,
			"max":[
				-29.760461807250977,
				4,
				-1.8658647537231445
			],
			"min":[
				-30.571271896362305,
				0,
				-9.265864372253418
			],
			"type":"VEC3"
		},
		{
			"bufferView":21,
			"componentType":5126,
			"count":426,
			"type":"VEC3"
		},
		{
			"bufferView":22,
			"componentType":5126,
			"count":426,
			"type":"VEC2"
		},
		{
			"bufferView":23,
			"componentType":5123,
			"count":804,
			"type":"SCALAR"
		},
		{
			"bufferView":24,
			"componentType":5126,
			"count":5663,
			"max":[
				-29.803625106811523,
				3.5999999046325684,
				-51.256256103515625
			],
			"min":[
				-30.528114318847656,
				0.4000000059604645,
				-59.45625305175781
			],
			"type":"VEC3"
		},
		{
			"bufferView":25,
			"componentType":5126,
			"count":5663,
			"type":"VEC3"
		},
		{
			"bufferView":26,
			"componentType":5126,
			"count":5663,
			"type":"VEC2"
		},
		{
			"bufferView":27,
			"componentType":5123,
			"count":16476,
			"type":"SCALAR"
		},
		{
			"bufferView":28,
			"componentType":5126,
			"count":426,
			"max":[
				-29.76046371459961,
				4,
				-51.256256103515625
			],
			"min":[
				-30.57127571105957,
				9.313225746154785e-10,
				-59.45624923706055
			],
			"type":"VEC3"
		},
		{
			"bufferView":29,
			"componentType":5126,
			"count":426,
			"type":"VEC3"
		},
		{
			"bufferView":30,
			"componentType":5126,
			"count":426,
			"type":"VEC2"
		},
		{
			"bufferView":31,
			"componentType":5126,
			"count":5614,
			"max":[
				-29.80362319946289,
				3.5999999046325684,
				-9.236344337463379
			],
			"min":[
				-30.528112411499023,
				0.4000000059604645,
				-21.236343383789062
			],
			"type":"VEC3"
		},
		{
			"bufferView":32,
			"componentType":5126,
			"count":5614,
			"type":"VEC3"
		},
		{
			"bufferView":33,
			"componentType":5126,
			"count":5614,
			"type":"VEC2"
		},
		{
			"bufferView":34,
			"componentType":5123,
			"count":16476,
			"type":"SCALAR"
		},
		{
			"bufferView":35,
			"componentType":5126,
			"count":406,
			"max":[
				-29.760461807250977,
				4,
				-9.236344337463379
			],
			"min":[
				-30.571273803710938,
				9.313225746154785e-10,
				-21.236343383789062
			],
			"type":"VEC3"
		},
		{
			"bufferView":36,
			"componentType":5126,
			"count":406,
			"type":"VEC3"
		},
		{
			"bufferView":37,
			"componentType":5126,
			"count":406,
			"type":"VEC2"
		},
		{
			"bufferView":38,
			"componentType":5123,
			"count":804,
			"type":"SCALAR"
		},
		{
			"bufferView":39,
			"componentType":5126,
			"count":8439,
			"max":[
				-29.803634643554688,
				3.5999999046325684,
				-21.253334045410156
			],
			"min":[
				-30.52812385559082,
				0.4000000059604645,
				-39.25333023071289
			],
			"type":"VEC3"
		},
		{
			"bufferView":40,
			"componentType":5126,
			"count":8439,
			"type":"VEC3"
		},
		{
			"bufferView":41,
			"componentType":5126,
			"count":8439,
			"type":"VEC2"
		},
		{
			"bufferView":42,
			"componentType":5123,
			"count":25968,
			"type":"SCALAR"
		},
		{
			"bufferView":43,
			"componentType":5126,
			"count":488,
			"max":[
				-29.760473251342773,
				4,
				-21.253334045410156
			],
			"min":[
				-30.571285247802734,
				9.091261632399039e-10,
				-39.25333023071289
			],
			"type":"VEC3"
		},
		{
			"bufferView":44,
			"componentType":5126,
			"count":488,
			"type":"VEC3"
		},
		{
			"bufferView":45,
			"componentType":5126,
			"count":488,
			"type":"VEC2"
		},
		{
			"bufferView":46,
			"componentType":5123,
			"count":996,
			"type":"SCALAR"
		},
		{
			"bufferView":47,
			"componentType":5126,
			"count":5648,
			"max":[
				-29.803625106811523,
				3.5999999046325684,
				-39.254058837890625
			],
			"min":[
				-30.528114318847656,
				0.4000000059604645,
				-51.254058837890625
			],
			"type":"VEC3"
		},
		{
			"bufferView":48,
			"componentType":5126,
			"count":5648,
			"type":"VEC3"
		},
		{
			"bufferView":49,
			"componentType":5126,
			"count":5648,
			"type":"VEC2"
		},
		{
			"bufferView":50,
			"componentType":5123,
			"count":16476,
			"type":"SCALAR"
		},
		{
			"bufferView":51,
			"componentType":5126,
			"count":406,
			"max":[
				-29.76046371459961,
				4,
				-39.254058837890625
			],
			"min":[
				-30.57127571105957,
				9.313225746154785e-10,
				-51.254058837890625
			],
			"type":"VEC3"
		},
		{
			"bufferView":52,
			"componentType":5126,
			"count":406,
			"type":"VEC3"
		},
		{
			"bufferView":53,
			"componentType":5126,
			"count":406,
			"type":"VEC2"
		},
		{
			"bufferView":54,
			"componentType":5126,
			"count":4744,
			"max":[
				-29.570899963378906,
				3.5999999046325684,
				0.7926754951477051
			],
			"min":[
				-30.52812957763672,
				0.4000000059604645,
				-1.8774418830871582
			],
			"type":"VEC3"
		},
		{
			"bufferView":55,
			"componentType":5126,
			"count":4744,
			"type":"VEC3"
		},
		{
			"bufferView":56,
			"componentType":5126,
			"count":4744,
			"type":"VEC2"
		},
		{
			"bufferView":57,
			"componentType":5123,
			"count":13734,
			"type":"SCALAR"
		},
		{
			"bufferView":58,
			"componentType":5126,
			"count":400,
			"max":[
				-29.61028289794922,
				4,
				0.872523307800293
			],
			"min":[
				-30.571290969848633,
				9.313225746154785e-10,
				-1.8774418830871582
			],
			"type":"VEC3"
		},
		{
			"bufferView":59,
			"componentType":5126,
			"count":400,
			"type":"VEC3"
		},
		{
			"bufferView":60,
			"componentType":5126,
			"count":400,
			"type":"VEC2"
		},
		{
			"bufferView":61,
			"componentType":5123,
			"count":744,
			"type":"SCALAR"
		}
	],
	"bufferViews":[
		{
			"buffer":0,
			"byteLength":537288,
			"byteOffset":0,
			"target":34962
		},
		{
			"buffer":0,
			"byteLength":537288,
			"byteOffset":537288,
			"target":34962
		},
		{
			"buffer":0,
			"byteLength":358192,
			"byteOffset":1074576,
			"target":34962
		},
		{
			"buffer":0,
			"byteLength":263616,
			"byteOffset":1432768,
			"target":34963
		},
		{
			"buffer":0,
			"byteLength":40896,
			"byteOffset":1696384,
			"target":34962
		},
		{
			"buffer":0,
			"byteLength":40896,
			"byteOffset":1737280,
			"target":34962
		},
		{
			"buffer":0,
			"byteLength":27264,
			"byteOffset":1778176,
			"target":34962
		},
		{
			"buffer":0,
			"byteLength":12864,
			"byteOffset":1805440,
			"target":34963
		},
		{
			"buffer":0,
			"byteLength":4560,
			"byteOffset":1818304,
			"target":34962
		},
		{
			"buffer":0,
			"byteLength":4560,
			"byteOffset":1822864,
			"target":34962
		},
		{
			"buffer":0,
			"byteLength":3040,
			"byteOffset":1827424,
			"target":34962
		},
		{
			"buffer":0,
			"byteLength":1956,
			"byteOffset":1830464,
			"target":34963
		},
		{
			"buffer":0,
			"byteLength":192,
			"byteOffset":1832420,
			"target":34962
		},
		{
			"buffer":0,
			"byteLength":192,
			"byteOffset":1832612,
			"target":34962
		},
		{
			"buffer":0,
			"byteLength":128,
			"byteOffset":1832804,
			"target":34962
		},
		{
			"buffer":0,
			"byteLength":72,
			"byteOffset":1832932,
			"target":34963
		},
		{
			"buffer":0,
			"byteLength":67116,
			"byteOffset":1833004,
			"target":34962
		},
		{
			"buffer":0,
			"byteLength":67116,
			"byteOffset":1900120,
			"target":34962
		},
		{
			"buffer":0,
			"byteLength":44744,
			"byteOffset":1967236,
			"target":34962
		},
		{
			"buffer":0,
			"byteLength":32952,
			"byteOffset":2011980,
			"target":34963
		},
		{
			"buffer":0,
			"byteLength":5112,
			"byteOffset":2044932,
			"target":34962
		},
		{
			"buffer":0,
			"byteLength":5112,
			"byteOffset":2050044,
			"target":34962
		},
		{
			"buffer":0,
			"byteLength":3408,
			"byteOffset":2055156,
			"target":34962
		},
		{
			"buffer":0,
			"byteLength":1608,
			"byteOffset":2058564,
			"target":34963
		},
		{
			"buffer":0,
			"byteLength":67956,
			"byteOffset":2060172,
			"target":34962
		},
		{
			"buffer":0,
			"byteLength":67956,
			"byteOffset":2128128,
			"target":34962
		},
		{
			"buffer":0,
			"byteLength":45304,
			"byteOffset":2196084,
			"target":34962
		},
		{
			"buffer":0,
			"byteLength":32952,
			"byteOffset":2241388,
			"target":34963
		},
		{
			"buffer":0,
			"byteLength":5112,
			"byteOffset":2274340,
			"target":34962
		},
		{
			"buffer":0,
			"byteLength":5112,
			"byteOffset":2279452,
			"target":34962
		},
		{
			"buffer":0,
			"byteLength":3408,
			"byteOffset":2284564,
			"target":34962
		},
		{
			"buffer":0,
			"byteLength":67368,
			"byteOffset":2287972,
			"target":34962
		},
		{
			"buffer":0,
			"byteLength":67368,
			"byteOffset":2355340,
			"target":34962
		},
		{
			"buffer":0,
			"byteLength":44912,
			"byteOffset":2422708,
			"target":34962
		},
		{
			"buffer":0,
			"byteLength":32952,
			"byteOffset":2467620,
			"target":34963
		},
		{
			"buffer":0,
			"byteLength":4872,
			"byteOffset":2500572,
			"target":34962
		},
		{
			"buffer":0,
			"byteLength":4872,
			"byteOffset":2505444,
			"target":34962
		},
		{
			"buffer":0,
			"byteLength":3248,
			"byteOffset":2510316,
			"target":34962
		},
		{
			"buffer":0,
			"byteLength":1608,
			"byteOffset":2513564,
			"target":34963
		},
		{
			"buffer":0,
			"byteLength":101268,
			"byteOffset":2515172,
			"target":34962
		},
		{
			"buffer":0,
			"byteLength":101268,
			"byteOffset":2616440,
			"target":34962
		},
		{
			"buffer":0,
			"byteLength":67512,
			"byteOffset":2717708,
			"target":34962
		},
		{
			"buffer":0,
			"byteLength":51936,
			"byteOffset":2785220,
			"target":34963
		},
		{
			"buffer":0,
			"byteLength":5856,
			"byteOffset":2837156,
			"target":34962
		},
		{
			"buffer":0,
			"byteLength":5856,
			"byteOffset":2843012,
			"target":34962
		},
		{
			"buffer":0,
			"byteLength":3904,
			"byteOffset":2848868,
			"target":34962
		},
		{
			"buffer":0,
			"byteLength":1992,
			"byteOffset":2852772,
			"target":34963
		},
		{
			"buffer":0,
			"byteLength":67776,
			"byteOffset":2854764,
			"target":34962
		},
		{
			"buffer":0,
			"byteLength":67776,
			"byteOffset":2922540,
			"target":34962
		},
		{
			"buffer":0,
			"byteLength":45184,
			"byteOffset":2990316,
			"target":34962
		},
		{
			"buffer":0,
			"byteLength":32952,
			"byteOffset":3035500,
			"target":34963
		},
		{
			"buffer":0,
			"byteLength":4872,
			"byteOffset":3068452,
			"target":34962
		},
		{
			"buffer":0,
			"byteLength":4872,
			"byteOffset":3073324,
			"target":34962
		},
		{
			"buffer":0,
			"byteLength":3248,
			"byteOffset":3078196,
			"target":34962
		},
		{
			"buffer":0,
			"byteLength":56928,
			"byteOffset":3081444,
			"target":34962
		},
		{
			"buffer":0,
			"byteLength":56928,
			"byteOffset":3138372,
			"target":34962
		},
		{
			"buffer":0,
			"byteLength":37952,
			"byteOffset":3195300,
			"target":34962
		},
		{
			"buffer":0,
			"byteLength":27468,
			"byteOffset":3233252,
			"target":34963
		},
		{
			"buffer":0,
			"byteLength":4800,
			"byteOffset":3260720,
			"target":34962
		},
		{
			"buffer":0,
			"byteLength":4800,
			"byteOffset":3265520,
			"target":34962
		},
		{
			"buffer":0,
			"byteLength":3200,
			"byteOffset":3270320,
			"target":34962
		},
		{
			"buffer":0,
			"byteLength":1488,
			"byteOffset":3273520,
			"target":34963
		}
	],
	"buffers":[
		{
			"byteLength":3275008,
			"uri":"wall3.bin"
		}
	]
}
